<svg width="114" height="23" viewBox="0 0 114 23" fill="none" xmlns="http://www.w3.org/2000/svg">
<g clip-path="url(#clip0_1_9)">
<path d="M7.552 14.888V21H1.92V0.999998H10.88C12.5867 0.999998 13.9627 1.24533 15.008 1.736C16.0747 2.20533 16.8427 2.97333 17.312 4.04C17.8027 5.10666 18.048 6.504 18.048 8.232C18.048 10.536 17.5147 12.2213 16.448 13.288C15.3813 14.3547 13.6853 14.888 11.36 14.888H7.552ZM7.552 10.76H10.656C11.2107 10.76 11.5947 10.664 11.808 10.472C12.0427 10.28 12.16 9.928 12.16 9.416V6.984C12.16 6.472 12.0427 6.12 11.808 5.928C11.5947 5.736 11.2107 5.64 10.656 5.64H7.552V10.76ZM14.208 11.144L18.912 21H12.8L9.376 13.768L14.208 11.144Z" fill="#F2C029"/>
<path d="M29.3842 0.519997C31.1762 0.519997 32.6482 0.722663 33.8002 1.128C34.9522 1.53333 35.8056 2.16266 36.3602 3.016C36.9149 3.848 37.1922 4.92533 37.1922 6.248C37.1922 7.25066 37.0536 8.168 36.7762 9C36.5202 9.832 36.1576 10.504 35.6882 11.016V11.24C36.3282 11.624 36.8403 12.2107 37.2243 13C37.6296 13.7893 37.8322 14.632 37.8322 15.528C37.8322 16.616 37.6722 17.544 37.3522 18.312C37.0536 19.0587 36.5629 19.6667 35.8802 20.136C35.2189 20.6053 34.3549 20.9467 33.2882 21.16C32.2216 21.3733 30.9202 21.48 29.3842 21.48C27.8482 21.48 26.5469 21.3733 25.4802 21.16C24.4136 20.9467 23.5389 20.6053 22.8562 20.136C22.1736 19.6667 21.6829 19.0587 21.3842 18.312C21.0856 17.544 20.9362 16.616 20.9362 15.528C20.9362 14.5893 21.1282 13.704 21.5122 12.872C21.9176 12.04 22.4402 11.4107 23.0802 10.984V10.76C22.6109 10.2907 22.2376 9.66133 21.9602 8.872C21.6829 8.06133 21.5442 7.18666 21.5442 6.248C21.5442 4.92533 21.8216 3.848 22.3762 3.016C22.9522 2.184 23.8162 1.56533 24.9682 1.16C26.1202 0.73333 27.5922 0.519997 29.3842 0.519997ZM28.0402 13C27.7202 12.872 27.4856 12.808 27.3362 12.808C27.1016 12.808 26.9842 12.9893 26.9842 13.352V17.064H30.1842C30.8242 17.064 31.2402 16.9893 31.4322 16.84C31.6456 16.6907 31.7522 16.392 31.7522 15.944V14.376L28.0402 13ZM30.5682 8.968C30.6962 9.01066 30.7922 9.04266 30.8562 9.064C30.9202 9.08533 30.9949 9.096 31.0802 9.096C31.2722 9.096 31.4322 9.04266 31.5602 8.936C31.6882 8.808 31.7522 8.66933 31.7522 8.52V4.936H28.5842C27.9656 4.936 27.5496 5.01066 27.3362 5.16C27.1229 5.288 27.0162 5.58666 27.0162 6.056L26.9842 7.592L30.5682 8.968Z" fill="#F2C029"/>
<path d="M45.5391 2.43945H50.7949C53.1139 2.43945 54.8574 2.78646 56.0254 3.48047C57.1934 4.17448 57.7773 5.35514 57.7773 7.02246C57.7773 7.74186 57.6377 8.38932 57.3584 8.96484C57.0876 9.5319 56.6898 10.0016 56.165 10.374C55.6403 10.7464 54.9928 11.0046 54.2227 11.1484V11.2754C55.0352 11.4023 55.7546 11.6351 56.3809 11.9736C57.0072 12.3122 57.498 12.7861 57.8535 13.3955C58.209 14.0049 58.3867 14.7793 58.3867 15.7188C58.3867 16.8613 58.1201 17.8262 57.5869 18.6133C57.0622 19.4004 56.3174 19.9971 55.3525 20.4033C54.3877 20.8011 53.2451 21 51.9248 21H45.5391V2.43945ZM47.6973 10.3994H51.252C52.8685 10.3994 53.9857 10.1328 54.6035 9.59961C55.2298 9.06641 55.543 8.28776 55.543 7.26367C55.543 6.20573 55.1706 5.44401 54.4258 4.97852C53.6895 4.51302 52.513 4.28027 50.8965 4.28027H47.6973V10.3994ZM47.6973 12.2148V19.1592H51.5566C53.207 19.1592 54.375 18.8376 55.0605 18.1943C55.7461 17.5426 56.0889 16.6667 56.0889 15.5664C56.0889 14.8639 55.9323 14.263 55.6191 13.7637C55.3145 13.2643 54.8151 12.8835 54.1211 12.6211C53.4355 12.3503 52.5173 12.2148 51.3662 12.2148H47.6973ZM73.9893 21L71.7041 15.1094H64.2646L61.9922 21H59.8086L67.0703 2.36328H69.0127L76.2236 21H73.9893ZM71.0566 13.1924L68.8857 7.33984C68.835 7.1875 68.7503 6.93783 68.6318 6.59082C68.5218 6.24382 68.4076 5.88411 68.2891 5.51172C68.1706 5.13932 68.0732 4.83887 67.9971 4.61035C67.9124 4.95736 67.8193 5.30436 67.7178 5.65137C67.6247 5.98991 67.5316 6.30729 67.4385 6.60352C67.3454 6.89128 67.265 7.13672 67.1973 7.33984L64.9883 13.1924H71.0566ZM93.3115 21H90.8232L80.7051 5.41016H80.6035C80.6289 5.82487 80.6585 6.29883 80.6924 6.83203C80.7262 7.35677 80.7516 7.9196 80.7686 8.52051C80.7939 9.11296 80.8066 9.7181 80.8066 10.3359V21H78.8008V2.43945H81.2764L91.3564 17.9785H91.4453C91.4284 17.6823 91.4072 17.2633 91.3818 16.7217C91.3564 16.1715 91.3311 15.5833 91.3057 14.957C91.2887 14.3223 91.2803 13.734 91.2803 13.1924V2.43945H93.3115V21ZM111.758 21H109.206L102.516 11.9736L100.535 13.751V21H98.377V2.43945H100.535V11.6943C101.018 11.1442 101.513 10.5983 102.021 10.0566C102.528 9.50651 103.032 8.95215 103.531 8.39355L108.952 2.43945H111.479L104.09 10.4883L111.758 21Z" fill="#FAE198"/>
</g>
<defs>
<clipPath id="clip0_1_9">
<rect width="114" height="23" fill="white"/>
</clipPath>
</defs>
</svg>
