<svg width="40" height="35" viewBox="0 0 40 35" fill="none" xmlns="http://www.w3.org/2000/svg">
<g clip-path="url(#clip0_1_3)">
<path d="M6.26176 15.9746V22.77H0V0.533674H9.96188C11.8594 0.533674 13.3892 0.806439 14.5515 1.35197C15.7374 1.87378 16.5913 2.72766 17.1131 3.9136C17.6586 5.09954 17.9314 6.65312 17.9314 8.57434C17.9314 11.136 17.3384 13.0097 16.1525 14.1957C14.9665 15.3816 13.0809 15.9746 10.4956 15.9746H6.26176ZM6.26176 11.385H9.71284C10.3295 11.385 10.7565 11.2783 10.9936 11.0648C11.2546 10.8513 11.385 10.46 11.385 9.89073V7.18679C11.385 6.61754 11.2546 6.22618 10.9936 6.01271C10.7565 5.79924 10.3295 5.69251 9.71284 5.69251H6.26176V11.385ZM13.662 11.8119L18.892 22.77H12.0966L8.28971 14.7294L13.662 11.8119Z" fill="#F2C029"/>
<path d="M30.5352 0C32.5276 0 34.1642 0.225328 35.445 0.675985C36.7258 1.12664 37.6746 1.82634 38.2913 2.7751C38.908 3.70013 39.2163 4.89793 39.2163 6.36849C39.2163 7.48327 39.0621 8.50318 38.7538 9.42821C38.4692 10.3532 38.0659 11.1004 37.5441 11.6696V11.9187C38.2557 12.3456 38.8249 12.9979 39.2519 13.8755C39.7025 14.7531 39.9279 15.69 39.9279 16.6862C39.9279 17.8958 39.75 18.9276 39.3942 19.7815C39.0621 20.6116 38.5166 21.2876 37.7576 21.8094C37.0223 22.3312 36.0617 22.7107 34.8758 22.9479C33.6898 23.1851 32.243 23.3037 30.5352 23.3037C28.8275 23.3037 27.3806 23.1851 26.1947 22.9479C25.0088 22.7107 24.0363 22.3312 23.2773 21.8094C22.5183 21.2876 21.9728 20.6116 21.6407 19.7815C21.3086 18.9276 21.1426 17.8958 21.1426 16.6862C21.1426 15.6425 21.3561 14.6582 21.783 13.7332C22.2337 12.8081 22.8148 12.1084 23.5263 11.6341V11.385C23.0045 10.8632 22.5894 10.1635 22.2811 9.2859C21.9728 8.38459 21.8186 7.41212 21.8186 6.36849C21.8186 4.89793 22.1269 3.70013 22.7436 2.7751C23.384 1.85006 24.3446 1.16222 25.6254 0.711564C26.9063 0.237188 28.5429 0 30.5352 0ZM29.0409 13.8755C28.6852 13.7332 28.4243 13.662 28.2582 13.662C27.9973 13.662 27.8669 13.8636 27.8669 14.2668V18.3939H31.4247C32.1362 18.3939 32.5988 18.3109 32.8122 18.1449C33.0494 17.9788 33.168 17.6468 33.168 17.1487V15.4053L29.0409 13.8755ZM31.8516 9.39263C31.9939 9.44007 32.1007 9.47565 32.1718 9.49937C32.243 9.52309 32.326 9.53495 32.4209 9.53495C32.6343 9.53495 32.8122 9.47565 32.9545 9.35706C33.0969 9.21474 33.168 9.06057 33.168 8.89454V4.90979H29.6458C28.9579 4.90979 28.4954 4.9928 28.2582 5.15883C28.021 5.30115 27.9024 5.63321 27.9024 6.15502L27.8669 7.86277L31.8516 9.39263Z" fill="#F2C029"/>
<path d="M0.0889435 23.9273H3.26581C4.66752 23.9273 5.72135 24.1343 6.42732 24.5483C7.13329 24.9623 7.48628 25.6667 7.48628 26.6614C7.48628 27.0905 7.40187 27.4768 7.23305 27.8201C7.06935 28.1584 6.82891 28.4387 6.51173 28.6608C6.19456 28.883 5.80321 29.037 5.33768 29.1228V29.1985C5.82878 29.2743 6.26362 29.4131 6.64218 29.6151C7.02075 29.8171 7.31746 30.0998 7.53232 30.4634C7.74718 30.8269 7.85461 31.2889 7.85461 31.8493C7.85461 32.531 7.69347 33.1066 7.37118 33.5761C7.054 34.0457 6.60382 34.4017 6.02062 34.644C5.43743 34.8813 4.74681 35 3.94876 35H0.0889435V23.9273ZM1.39345 28.676H3.54206C4.51916 28.676 5.19443 28.5169 5.56788 28.1988C5.94645 27.8807 6.13573 27.4162 6.13573 26.8053C6.13573 26.1741 5.91064 25.7197 5.46045 25.442C5.01538 25.1643 4.3043 25.0254 3.3272 25.0254H1.39345V28.676ZM1.39345 29.759V33.9018H3.72622C4.72379 33.9018 5.42976 33.7099 5.84413 33.3262C6.25851 32.9374 6.46569 32.4148 6.46569 31.7585C6.46569 31.3394 6.37105 30.9809 6.18177 30.683C5.9976 30.3851 5.69578 30.1579 5.27629 30.0014C4.86191 29.8398 4.30686 29.759 3.61112 29.759H1.39345Z" fill="#F2C029"/>
<path d="M17.2854 35L15.9042 31.4858H11.4075L10.0339 35H8.71405L13.1033 23.8818H14.2774L18.636 35H17.2854ZM15.5128 30.3422L14.2007 26.8507C14.17 26.7598 14.1188 26.6109 14.0472 26.4039C13.9807 26.1968 13.9116 25.9823 13.84 25.7601C13.7684 25.5379 13.7096 25.3587 13.6635 25.2224C13.6124 25.4294 13.5561 25.6364 13.4947 25.8434C13.4384 26.0454 13.3821 26.2347 13.3259 26.4114C13.2696 26.5831 13.221 26.7295 13.1801 26.8507L11.8449 30.3422H15.5128Z" fill="#F2C029"/>
<path d="M28.9646 35H27.4606L21.3448 25.6995H21.2834C21.2987 25.9469 21.3166 26.2297 21.3371 26.5478C21.3576 26.8608 21.3729 27.1966 21.3831 27.5551C21.3985 27.9085 21.4062 28.2695 21.4062 28.6381V35H20.1937V23.9273H21.6901L27.7829 33.1975H27.8366C27.8264 33.0207 27.8136 32.7708 27.7983 32.4477C27.7829 32.1195 27.7676 31.7686 27.7522 31.3949C27.742 31.0162 27.7369 30.6653 27.7369 30.3422V23.9273H28.9646V35Z" fill="#F2C029"/>
<path d="M40.1144 35H38.572L34.528 29.6151L33.3309 30.6754V35H32.0264V23.9273H33.3309V29.4485C33.6225 29.1203 33.9218 28.7946 34.2287 28.4715C34.5357 28.1433 34.84 27.8126 35.1419 27.4793L38.4185 23.9273H39.9455L35.4795 28.729L40.1144 35Z" fill="#F2C029"/>
</g>
<defs>
<clipPath id="clip0_1_3">
<rect width="40" height="35" fill="white"/>
</clipPath>
</defs>
</svg>
